<svg id="Layer_1" enable-background="new 0 0 128 128" height="512" viewBox="0 0 128 128" width="512" xmlns="http://www.w3.org/2000/svg"><path d="m22.3 1.8h73.3c5.5 0 10 4.5 10 10v93.2c0 5.5-4.5 10-10 10h-73.3z" fill="#5a6571"/><path d="m47.6 126.3-8-4.1-8 4.1v-11.3h16z" fill="#40b4f9"/><path d="m22.3 32h83.3v42.5h-83.3z" fill="#f9e14e"/><g fill="#ffc543"><path d="m71 40.1h-38c-1 0-1.8.8-1.8 1.8s.8 1.8 1.8 1.8h38c1 0 1.8-.8 1.8-1.8s-.8-1.8-1.8-1.8z"/><path d="m71 51.5h-38c-1 0-1.8.8-1.8 1.8s.8 1.7 1.8 1.7h38c1 0 1.8-.8 1.8-1.8s-.8-1.7-1.8-1.7z"/><path d="m71 62.9h-38c-1 0-1.8.8-1.8 1.8s.8 1.8 1.8 1.8h38c1 0 1.8-.8 1.8-1.8s-.8-1.8-1.8-1.8z"/><path d="m85.8 43.6h8.8c1 0 1.8-.8 1.8-1.8s-.8-1.8-1.8-1.8h-8.8c-1 0-1.8.8-1.8 1.8s.9 1.8 1.8 1.8z"/><path d="m94.7 51.5h-8.8c-1 0-1.8.8-1.8 1.8s.8 1.8 1.8 1.8h8.8c1 0 1.8-.8 1.8-1.8s-.9-1.8-1.8-1.8z"/><path d="m94.7 62.9h-8.8c-1 0-1.8.8-1.8 1.8s.8 1.8 1.8 1.8h8.8c1 0 1.8-.8 1.8-1.8s-.9-1.8-1.8-1.8z"/></g><path d="m71 1.8h14.8v113.3h-14.8z" fill="#ff8533"/></svg>