<svg id="Capa_1" enable-background="new 0 0 512 512" height="512" viewBox="0 0 512 512" width="512" xmlns="http://www.w3.org/2000/svg"><path d="m120.79 371.054c9.289 25.564-17.499 47.285-21.58 50.407-.336.257-.732.401-1.154.419-5.134.227-39.626.774-48.916-24.791-13.513-37.187 7.48-69.088 11.979-75.304.492-.679 1.338-.987 2.152-.782 7.439 1.88 44.006 12.865 57.519 50.051z" fill="#ffca28"/><path d="m120.79 371.054c-13.154-36.199-48.144-47.566-56.855-49.877 11.1 7.677 22.513 19.355 28.852 36.801 9.289 25.564-17.499 47.285-21.58 50.407-.336.257-.732.401-1.154.419-1.834.081-7.424.196-14.265-.847 13.51 14.504 38.005 14.111 42.268 13.922.422-.019.819-.163 1.154-.42 4.081-3.12 30.869-24.841 21.58-50.405z" fill="#ffb300"/><path d="m113.835 441.562-31.962-87.96c-1.415-3.893-5.717-5.903-9.61-4.487-3.893 1.415-5.902 5.717-4.487 9.61l31.962 87.96c1.417 3.9 5.725 5.9 9.61 4.487 3.893-1.414 5.902-5.717 4.487-9.61z" fill="#bf6724"/><path d="m380.694 90.394c19.233-19.233 50.248-4.151 54.803-1.774.375.196.673.494.868.868 2.378 4.556 17.467 35.577-1.767 54.811-27.977 27.977-65.764 22.453-73.3 21.006-.824-.158-1.461-.795-1.619-1.619-1.444-7.534-6.962-45.315 21.015-73.292z" fill="#ffca28"/><path d="m436.366 89.488c-.196-.375-.494-.673-.869-.868-3.783-1.974-25.803-12.688-44.178-5.264 6.635 1.948 11.646 4.415 13.273 5.264.375.196.673.494.869.868 2.378 4.556 17.466 35.577-1.767 54.811-13.122 13.122-28.401 18.874-41.706 21.133 8.898 1.595 45.392 6.085 72.611-21.133 19.233-19.233 4.144-50.255 1.767-54.811z" fill="#ffb300"/><path d="m458.129 66.864c-2.93-2.929-7.678-2.929-10.607 0l-66.176 66.177c-2.929 2.929-2.929 7.678 0 10.606 2.93 2.929 7.678 2.929 10.607 0l66.176-66.177c2.929-2.928 2.929-7.678 0-10.606z" fill="#bf6724"/><path d="m256 463.037c-40.626 0-73.56-32.934-73.56-73.56v-89.427c0-2.276 1.845-4.121 4.121-4.121h138.878c2.276 0 4.121 1.845 4.121 4.121v89.427c0 40.626-32.934 73.56-73.56 73.56z" fill="#7dafc9"/><path d="m325.439 295.929h-30.905c2.276 0 4.121 1.845 4.121 4.121v89.427c0 35.324-24.903 64.82-58.107 71.921 4.984 1.066 10.15 1.639 15.453 1.639 40.626 0 73.56-32.934 73.56-73.56v-89.427c-.001-2.276-1.846-4.121-4.122-4.121z" fill="#6297b3"/><path d="m280.725 0h-49.449c-9.816 0-17.802 7.986-17.802 17.802v35.026c0 9.816 7.986 17.802 17.802 17.802h49.449c9.816 0 17.802-7.986 17.802-17.802v-35.026c-.001-9.816-7.986-17.802-17.802-17.802zm2.801 52.828c0 1.545-1.257 2.802-2.802 2.802h-49.449c-1.545 0-2.802-1.257-2.802-2.802v-35.026c0-1.545 1.257-2.802 2.802-2.802h49.449c1.545 0 2.802 1.257 2.802 2.802z" fill="#6297b3"/><path d="m256 338.414c-8.534 0-15.453-6.918-15.453-15.453v-269.907c0-8.534 6.918-15.453 15.453-15.453 8.534 0 15.453 6.918 15.453 15.453v269.907c0 8.535-6.919 15.453-15.453 15.453z" fill="#bf6724"/><path d="m486.245 512h-455.34c-17.068 0-30.905-13.837-30.905-30.905v-36.692c0-2.209 1.791-4 4-4h504c2.209 0 4 1.791 4 4v41.843c0 14.223-11.531 25.754-25.755 25.754z" fill="#f2ac57"/><path d="m481.095 440.402v45.843c0 14.224-11.531 25.755-25.755 25.755h30.905c14.224 0 25.755-11.531 25.755-25.755v-41.843c0-2.209-1.791-4-4-4z" fill="#e39e4b"/></svg>